<svg width="362" height="100" viewBox="0 0 362 100" fill="none" xmlns="http://www.w3.org/2000/svg">
<path d="M80.2652 72.2698L83.8994 74.3465L84.0033 74.1389C89.0912 67.078 91.791 58.6673 91.791 49.8413C91.8948 38.5231 87.6375 27.9319 79.746 20.0403C71.8545 12.045 61.367 7.68387 50.1528 7.68387C26.9973 7.68387 8.09921 26.4782 8.09921 49.6336C8.09921 72.789 26.9973 91.5833 50.1528 91.5833C54.2024 91.5833 58.0443 91.0641 61.6785 89.9219L61.8862 89.8181L61.0555 85.6646L60.744 85.7685C57.2136 86.8068 53.5793 87.4299 49.9451 87.4299C29.1779 87.4299 12.2526 70.5046 12.2526 49.7374C12.2526 28.9702 29.1779 12.045 49.9451 12.045C70.7123 12.045 87.6375 28.9702 87.6375 49.7374C87.6375 57.7328 85.1455 65.4166 80.369 72.0621L80.2652 72.2698Z" fill="#424242"/>
<path d="M85.5608 14.7447C76.1117 5.1918 63.5476 0 50.1528 0C45.4801 0 41.0152 0.623016 36.7579 1.86905L36.5502 1.97288L37.2771 5.81481L37.5886 5.71098C41.742 4.56878 45.9993 3.94576 50.1528 3.94576C75.5926 3.94576 96.3597 24.6091 96.3597 50.1528C96.3597 75.6964 75.5926 96.2559 50.1528 96.2559C24.6091 96.1521 3.94577 75.3849 3.94577 49.9451C3.94577 40.2883 6.85317 31.1508 12.4603 23.2592L12.668 23.0516L9.2414 21.0787L9.13756 21.2864C3.21891 29.6971 0 39.6653 0 50.0489C0 77.5654 22.4286 99.994 49.9451 99.994C77.5654 99.994 99.994 77.5654 99.994 50.0489C100.202 36.7579 95.0099 24.1938 85.5608 14.7447Z" fill="#424242"/>
<path d="M28.1395 63.1322C27.6204 63.1322 27.205 63.5476 27.205 64.0668V70.8161C27.205 71.3353 27.6204 71.7506 28.1395 71.7506H34.6812C35.2004 71.7506 35.6157 71.3353 35.6157 70.8161V64.0668C35.6157 63.5476 35.2004 63.1322 34.6812 63.1322H28.1395Z" fill="#424242"/>
<path d="M39.9768 58.6673C39.4577 58.6673 39.0423 59.0826 39.0423 59.6018V70.9199C39.0423 71.4391 39.4577 71.8545 39.9768 71.8545H46.5185C47.0377 71.8545 47.453 71.4391 47.453 70.9199V59.6018C47.453 59.0826 47.0377 58.6673 46.5185 58.6673H39.9768Z" fill="#424242"/>
<path d="M52.1256 53.0602C51.6065 53.0602 51.1911 53.4755 51.1911 53.9947V70.9199C51.1911 71.4391 51.6065 71.8545 52.1256 71.8545H58.6673C59.1865 71.8545 59.6018 71.4391 59.6018 70.9199V53.9947C59.6018 53.4755 59.1865 53.0602 58.6673 53.0602H52.1256Z" fill="#424242"/>
<path d="M71.3353 45.4801H64.6898C64.1706 45.4801 63.7553 45.8955 63.7553 46.4147V70.9199C63.7553 71.4391 64.1706 71.8545 64.6898 71.8545H71.2314C71.7506 71.8545 72.166 71.4391 72.166 70.9199V46.4147C72.2698 45.8955 71.8545 45.4801 71.3353 45.4801Z" fill="#424242"/>
<path d="M71.7506 39.4577L68.5317 26.7897C68.5317 26.582 68.324 26.4782 68.2202 26.3743C68.0125 26.2705 67.9087 26.2705 67.701 26.3743L54.8254 30.9431C54.6177 31.0469 54.41 31.2546 54.41 31.4623C54.41 31.67 54.5139 31.9815 54.7215 32.0853L58.3558 33.9543C55.3446 38.4193 45.7916 50.6719 28.0357 56.5906C27.7242 56.6944 27.5165 57.0059 27.6204 57.3174C27.7242 57.6289 27.9319 57.8366 28.2434 57.8366H28.3472C28.6587 57.8366 54.7215 52.8525 66.3512 38.0039L70.7123 40.1845C70.9199 40.2883 71.2314 40.2883 71.3353 40.0807C71.6468 39.9768 71.7506 39.6653 71.7506 39.4577Z" fill="#424242"/>
<path d="M135.299 47.4696C141.66 48.9215 145.808 54.1759 145.808 60.26C145.808 68.7638 140.277 74.0874 128.316 74.0874H112V25.6914H128.524C137.996 25.6914 142.697 31.0841 142.697 37.3756C142.697 42.0077 140.07 45.7412 135.299 47.4696ZM128.109 30.8075H117.738V45.6029H128.109C133.64 45.6029 137.028 42.5608 137.028 38.1361C137.028 33.573 133.847 30.8075 128.109 30.8075ZM128.109 68.9712C136.405 68.9712 140.07 65.5835 140.07 59.776C140.07 54.729 136.405 50.3733 128.455 50.3733H117.738V68.9712H128.109ZM181.759 25.6914H187.498V56.5265C187.498 68.4181 179.754 75.1244 169.937 75.1244C160.119 75.1244 152.376 68.4181 152.376 56.5265V25.6914H158.114V56.5265C158.114 65.5835 163.507 69.6626 169.937 69.6626C176.367 69.6626 181.759 65.5835 181.759 56.5265V25.6914ZM210.175 25.6914C224.279 25.6914 234.649 36.4076 234.649 49.8894C234.649 63.3711 224.279 74.0874 210.175 74.0874H195.794V25.6914H210.175ZM210.106 68.6256C221.652 68.6256 228.773 60.26 228.773 49.8894C228.773 39.5188 221.652 31.1532 210.106 31.1532H201.533V68.6256H210.106ZM287.401 49.7511C288.438 65.2378 277.86 74.7788 265.277 74.7788C252.348 74.7788 240.526 64.5465 240.526 49.8894C240.526 35.2323 252.625 25 265.277 25C271.361 25 276.892 27.0741 281.248 30.7384L277.722 34.7483C274.334 32.052 269.978 30.4618 265.623 30.4618C255.736 30.4618 246.472 38.4817 246.472 49.8894C246.472 61.297 255.46 69.3169 265.277 69.3169C273.85 69.3169 280.695 64.6847 282.008 54.729H267.904V49.7511H287.401ZM300.468 68.6947H323.491V74.0874H299.085H294.73V25.6914H300.468H322.868V31.0841H300.468V47.1239H317.89V52.3783H300.468V68.6947ZM362 25.6914V31.0841H348.587V74.0874H342.849V31.0841H329.367V25.6914H362Z" fill="#424242"/>
</svg>
